<svg xmlns="http://www.w3.org/2000/svg" width="294" viewBox="0 0 220.5 267" height="356" version="1.2"><defs><clipPath id="prefix__a"><path d="M0 .3h220v266.395H0zm0 0"/></clipPath><clipPath id="prefix__c"><path d="M0 .3h219.738v219.74H0zm0 0"/></clipPath><clipPath id="prefix__d"><path d="M52.383.3h114.972a52.377 52.377 0 0137.04 15.345 52.377 52.377 0 0115.343 37.039V167.66a52.384 52.384 0 01-52.383 52.38H52.383A52.383 52.383 0 010 167.66V52.684a52.377 52.377 0 0115.344-37.04A52.37 52.37 0 0152.383.302zm0 0"/></clipPath><clipPath id="prefix__f"><path d="M0 .3h219.738v219.74H0zm0 0"/></clipPath><clipPath id="prefix__g"><path d="M52.383.3h114.972a52.377 52.377 0 0137.04 15.345 52.377 52.377 0 0115.343 37.039V167.66a52.384 52.384 0 01-52.383 52.38H52.383A52.383 52.383 0 010 167.66V52.684a52.377 52.377 0 0115.344-37.04A52.37 52.37 0 0152.383.302zm0 0"/></clipPath><clipPath id="prefix__e"><path d="M0 0h220v221H0z"/></clipPath><clipPath id="prefix__h"><path d="M98.121 197.402h69.086v68.95H98.121zm0 0"/></clipPath><clipPath id="prefix__i"><path d="M98.148 197.402h69.059v68.95zm0 0"/></clipPath><clipPath id="prefix__k"><path d="M.121.402h69.086v68.95H.121zm0 0"/></clipPath><clipPath id="prefix__l"><path d="M.148.402h69.059v68.95zm0 0"/></clipPath><clipPath id="prefix__j"><path d="M0 0h70v70H0z"/></clipPath><clipPath id="prefix__m"><path d="M39 117h142v46.5H39zm0 0"/></clipPath><clipPath id="prefix__n"><path d="M28 110.172h22V125H28zm0 0"/></clipPath><clipPath id="prefix__o"><path d="M170 110.172h21.914V125H170zm0 0"/></clipPath><clipPath id="prefix__b"><path d="M0 0h220v267H0z"/></clipPath></defs><g clip-path="url(#prefix__a)"><g clip-path="url(#prefix__b)"><g clip-path="url(#prefix__c)"><g clip-path="url(#prefix__d)"><g clip-path="url(#prefix__e)"><g clip-path="url(#prefix__f)"><g clip-path="url(#prefix__g)"><path d="M0 .3h219.738v219.74H0zm0 0" fill="#9ae600"/></g></g></g></g></g><g clip-path="url(#prefix__h)"><g clip-path="url(#prefix__i)"><g clip-path="url(#prefix__j)" transform="translate(98 197)"><g clip-path="url(#prefix__k)"><g clip-path="url(#prefix__l)"><path d="M69.207 69.352H.121V.402h69.086zm0 0" fill="#9ae600"/></g></g></g></g></g><g clip-path="url(#prefix__m)"><path d="M178.95 117.71c-9.544 10.063-20.419 17.49-32.184 22.423-11.77 4.933-24.274 7.336-36.848 7.37-12.578-.034-25.106-2.425-36.852-7.37-11.746-4.95-22.644-12.352-32.187-22.41v-.012a1.003 1.003 0 00-.61-.313 1.01 1.01 0 00-.671.141.966.966 0 00-.43.531.97.97 0 000 .68c4.75 13.523 15.184 25.14 27.875 32.89 12.734 7.81 27.848 11.844 42.875 11.856 15.027.012 30.14-4.047 42.875-11.855 12.691-7.754 23.125-19.364 27.879-32.891a1.026 1.026 0 000-.684.995.995 0 00-.434-.527 1.024 1.024 0 00-1.281.172zm0 0"/></g><g clip-path="url(#prefix__n)"><path d="M45.348 114.96c.941-.226 1.918-.382 2.965-.757l.148-.05a1.05 1.05 0 00.48-.348c.13-.164.204-.348.223-.555.02-.203-.02-.398-.11-.582a1.044 1.044 0 00-.41-.434 16.164 16.164 0 00-3.117-1.394c-1.113-.207-2.254-.563-3.441-.531-2.367-.137-4.848.492-7.063 1.62a12.778 12.778 0 00-5.277 5.055c-1.2 2.102-1.832 4.395-1.562 6.852.046.437.28.73.699.875.418.144.785.059 1.097-.254l.145-.152c1.422-1.438 2.695-2.828 3.992-3.93a21.693 21.693 0 013.973-2.8c1.394-.712 2.863-1.41 4.578-1.864.836-.324 1.758-.45 2.68-.75zm0 0"/></g><g clip-path="url(#prefix__o)"><path d="M189.973 116.984a12.788 12.788 0 00-5.282-5.054c-2.21-1.13-4.691-1.758-7.058-1.621-1.192-.032-2.328.324-3.442.53-1.09.356-2.129.821-3.12 1.395a1.06 1.06 0 00-.294 1.57c.125.16.29.278.48.348l.145.051c1.051.375 2.028.531 2.97.762.921.297 1.843.422 2.667.746 1.715.453 3.176 1.152 4.582 1.863a21.799 21.799 0 013.969 2.801c1.305 1.102 2.578 2.492 3.992 3.93l.148.152c.31.313.676.398 1.094.254.418-.145.653-.438.703-.875.278-2.453-.351-4.75-1.554-6.852zm0 0"/></g></g></g></svg>