<svg xmlns="http://www.w3.org/2000/svg" viewBox="0 0 1024 1024">
  <rect width="1024" height="1024" rx="224" fill="#f8f9f5" />
  <g fill="#88cc00" transform="translate(192 192) scale(.32258)">
    <path d="M1 1984V1c660.7 0 1321.4 0 1982.6.5-.5 38.6-.9 76.7-2.6 114.8-2.4 54.5-8.3 108.6-15.8 162.6-9.2 65.9-21.8 131.2-37.6 195.9-27.9 114.4-65.8 231.4-113.9 332.8-70.2 157.2-159.3 303-267.4 437.1-87.6 108.5-185.4 206.8-293.5 295-99.8 81.5-206.6 152.5-320.2 213.1-147.5 78.5-302.4 137.6-465 176.6-56.5 13.6-113.4 24.8-170.8 33.5-49.3 7.4-98.8 12.6-148.5 16.4-49 3.7-98.1 5.5-147.3 4.7" />
    <path d="M1250.5 1985c-.5-.2-.5-.4.1-.8 244.7-.3 488.9-.3 733.4-.3v-650.3c0-27.8 0-55.6-.1-83.5.2 0 .4-.1.8-.1.3 244.9.3 489.9.3 735z" />
    <path d="M1983.5 1250.1c.5 27.9.5 55.7.5 83.5v650.3h-733.4c.6-23 .8-46 2.8-68.9 4.2-48.8 13.7-96.7 28.1-143.7 28.4-93 73.2-177.3 135.1-252.4 68.6-83.2 151.2-148.7 248.2-195.8 60-29.1 122.8-49.5 188.5-61.3 42.9-7.7 86.1-11.5 130.2-11.7" />
  </g>
</svg>
